<svg id="eYuEkWBy6h71" xmlns="http://www.w3.org/2000/svg" xmlns:xlink="http://www.w3.org/1999/xlink"
  viewBox="0 0 205 205" shape-rendering="geometricPrecision" text-rendering="geometricPrecision"
  width="205" height="205">
  <path
    d="M184.727,204.458h-164.8513c-5.2695-.005-10.32154-2.1-14.04767-5.823C2.1019,194.911,0.005932,189.863,0,184.597L0,19.8617C0.005932,14.5959,2.1019,9.5474,5.82803,5.8239s8.77817-5.817972,14.04767-5.8239h164.8513c5.27.005928,10.322,2.10039,14.048,5.8239s5.822,8.772,5.828,14.0378v164.7353c-.006,5.266-2.102,10.314-5.828,14.038-3.726,3.723-8.778,5.818-14.048,5.823ZM19.8757,2.33667c-4.6496.00525-9.1072,1.85331-12.39498,5.13875s-5.13714,7.73998-5.1424,12.38628v164.7353c.00526,4.646,1.85464,9.101,5.1424,12.386s7.74538,5.134,12.39498,5.139h164.8513c4.65-.005,9.107-1.854,12.395-5.139s5.137-7.74,5.143-12.386v-164.7353c-.006-4.6463-1.855-9.1008-5.143-12.38628s-7.745-5.1335-12.395-5.13875h-164.8513Z"
    fill="#212028" />
  <path
    d="M97.0128,133.363c-3.3871.03-6.7426-.652-9.8484-2.002-3.1058-1.351-5.8923-3.34-8.1784-5.837-5.3394-5.826-7.9516-14.276-7.1668-23.183.6522-7.9387,3.9804-15.4218,9.4403-21.2256c2.6051-2.8167,5.7586-5.0718,9.2671-6.6271c3.5084-1.5552,7.2979-2.3779,11.1354-2.4173c3.556-.0157,7.075.7169,10.329,2.15c3.253,1.4331,6.168,3.5346,8.556,6.1678c2.72,3.0749,4.774,6.6801,6.03,10.588s1.688,8.0335,1.268,12.1162c-.799,9.052-4.318,16.739-10.175,22.231-5.607,5.215-12.997,8.091-20.6572,8.039Zm4.6492-52.7243c-10.8355,0-20.1927,9.8629-21.3021,22.4543-.5745,6.519,1.2294,12.586,4.949,16.644c1.4783,1.627,3.2871,2.92,5.3054,3.792c2.0184.872,4.1998,1.304,6.3985,1.266c10.1092,0,20.9222-6.943,22.2922-22.455.315-2.8987.027-5.8316-.848-8.6138-.874-2.7822-2.316-5.3533-4.234-7.5514-1.587-1.7521-3.526-3.1505-5.69-4.1043s-4.505-1.4417-6.871-1.4318Z"
    fill="#ffd465" />
  <path
    d="M137.76,133.475c-.955.003-1.909-.079-2.851-.244-2.475-.427-4.837-1.352-6.943-2.72-2.105-1.368-3.911-3.15-5.305-5.237-3.046-4.532-4.332-10.605-3.719-17.561l2.796-31.7178c.102-1.1301.648-2.1736,1.519-2.9016s1.996-1.0809,3.127-.9813s2.177.6436,2.907,1.5125c.73.869,1.085,1.992.988,3.1225l-2.797,31.7167c-.801,9.094,2.535,15.199,8.924,16.331c2.192.388,6.132-.214,10.019-3.19c3.97-3.04,8.937-9.323,10.053-21.9889c1.282-14.5317-2.434-27.0067-10.746-36.0769-8.714-9.509-21.905-14.535-38.147-14.535-29.8548,0-56.2689,24.2631-58.8819,54.0868-.5113,5.611-.1072,11.267,1.1965,16.749.2662,1.104.0823,2.269-.5111,3.238s-1.5477,1.663-2.653,1.929-2.2712.083-3.241-.51-1.6642-1.547-1.9304-2.652c-1.521-6.381-1.9945-12.968-1.4021-19.502c1.7075-16.7767,9.514-32.3451,21.9403-43.7549C74.5287,47.1784,90.7117,40.7199,107.585,40.4365c18.711,0,34.088,5.9879,44.47,17.3165c9.837,10.7342,14.441,25.8685,12.964,42.615-1.389,15.77-8.043,23.951-13.379,28.038-3.957,3.143-8.827,4.922-13.88,5.069Z"
    fill="#ffd465" />
  <path
    d="M97.3557,164.998c-14.0708.112-27.7006-4.902-38.3401-14.104-.4235-.372-.7696-.823-1.0185-1.328s-.3957-1.054-.4321-1.616.0383-1.125.22-1.658.4667-1.025.8387-1.447c.372-.423.8237-.768,1.3294-1.017.5057-.248,1.0554-.394,1.6176-.43.5622-.035,1.126.04,1.659.222s1.025.468,1.4477.84c9.0748,7.826,20.6917,12.081,32.6783,11.97c9.6113,0,15.4273-.642,24.4833-4.444.519-.218,1.076-.332,1.639-.335s1.121.105,1.642.318c.522.212.996.525,1.396.921s.719.867.937,1.386c.218.518.332,1.075.334,1.638.003.562-.105,1.12-.318,1.641s-.526.995-.923,1.395c-.396.399-.867.717-1.386.935-10.355,4.347-17.216,5.113-27.8043,5.113Z"
    fill="#ffd465" />
</svg>